<?xml version="1.0" standalone="no"?>
<!DOCTYPE svg PUBLIC "-//W3C//DTD SVG 20010904//EN"
 "http://www.w3.org/TR/2001/REC-SVG-20010904/DTD/svg10.dtd">
<svg version="1.0" xmlns="http://www.w3.org/2000/svg"
 width="310.000000pt" height="310.000000pt" viewBox="0 0 310.000000 310.000000"
 preserveAspectRatio="xMidYMid meet">
<metadata>
Created by potrace 1.11, written by Peter Selinger 2001-2013
</metadata>
<g transform="translate(0.000000,310.000000) scale(0.100000,-0.100000)"
fill="#000000" stroke="none">
<path d="M1745 2641 c-11 -5 -37 -7 -57 -7 -21 1 -38 -2 -38 -7 0 -4 -6 -7
-12 -6 -19 4 -128 -23 -134 -32 -2 -5 -11 -6 -19 -2 -8 3 -15 0 -15 -7 0 -7
-7 -10 -15 -6 -8 3 -15 1 -15 -5 0 -6 -4 -8 -9 -4 -5 3 -17 -2 -25 -11 -9 -8
-16 -13 -16 -10 0 3 -26 -8 -59 -24 -68 -35 -80 -36 -107 -12 -20 19 -54 36
-66 34 -5 -1 -8 2 -8 7 0 5 -13 12 -30 16 -17 4 -30 11 -30 16 0 5 -3 8 -7 8
-20 -3 -44 2 -40 9 3 4 -12 7 -33 6 -22 0 -37 3 -34 8 3 5 -7 9 -23 9 -15 0
-76 2 -135 3 -60 1 -108 0 -108 -3 0 -5 -21 -9 -72 -14 -10 -1 -18 -5 -18 -9
0 -4 -10 -8 -22 -8 -13 0 -47 -14 -77 -30 -30 -17 -60 -30 -67 -30 -7 0 -14
-4 -16 -8 -1 -5 -23 -22 -48 -39 -68 -47 -153 -137 -185 -196 -11 -20 -23 -37
-27 -37 -5 0 -8 -9 -8 -20 0 -11 -5 -20 -12 -20 -6 0 -9 -3 -5 -6 3 -4 -1 -21
-10 -38 -10 -17 -17 -38 -18 -46 0 -8 -3 -20 -7 -26 -9 -14 -17 -57 -24 -129
-3 -33 -7 -66 -9 -72 -3 -7 1 -13 7 -13 7 0 7 -4 -1 -13 -6 -8 -9 -16 -6 -19
3 -3 7 -22 9 -44 3 -21 5 -39 6 -39 3 0 7 -25 12 -62 1 -13 6 -23 10 -23 4 0
8 -9 8 -19 0 -24 79 -181 91 -181 5 0 9 -5 9 -10 0 -12 6 -20 70 -88 25 -27
61 -59 80 -72 19 -13 37 -27 40 -30 3 -3 28 -17 55 -30 28 -14 53 -29 57 -35
4 -5 8 -6 8 -1 0 4 11 1 25 -8 14 -9 25 -14 25 -12 0 3 15 0 33 -6 37 -11 72
-18 107 -21 26 -2 52 -20 49 -34 -1 -4 4 -21 11 -38 7 -16 14 -32 14 -35 4
-15 52 -106 59 -108 4 -2 7 -8 7 -14 0 -13 57 -95 92 -133 15 -16 28 -36 28
-43 0 -7 4 -10 10 -7 6 3 10 -1 10 -9 0 -9 7 -16 16 -16 8 0 12 -5 9 -10 -3
-6 -3 -10 2 -10 4 0 30 -20 58 -45 27 -25 54 -45 58 -45 5 0 5 -5 2 -10 -4 -6
-3 -9 2 -8 4 1 40 -18 78 -42 61 -39 118 -71 135 -75 3 0 15 -6 26 -13 12 -6
24 -8 28 -5 3 3 6 1 6 -5 0 -7 9 -12 19 -12 11 0 22 -4 26 -10 3 -5 12 -7 20
-3 8 3 15 -1 15 -8 0 -7 3 -10 6 -6 3 3 18 1 33 -5 14 -6 35 -11 46 -13 11 -1
37 -5 58 -10 20 -4 52 -8 70 -9 19 -2 40 -6 47 -11 9 -6 11 -4 5 6 -8 12 -6
12 8 0 13 -10 17 -10 17 -1 0 9 3 10 13 1 10 -8 17 -7 25 1 8 8 12 9 12 1 0
-12 18 -12 38 0 7 5 12 3 12 -4 0 -8 5 -7 17 2 14 12 16 12 8 0 -6 -11 -5 -12
6 -5 8 4 28 9 44 10 48 4 99 11 115 18 8 3 26 8 40 10 14 3 27 5 30 6 3 2 8 2
13 1 4 0 7 3 7 8 0 6 9 8 20 6 11 -2 20 0 20 4 0 5 16 12 35 15 19 4 35 12 35
18 0 6 3 8 6 5 7 -7 127 52 132 65 2 5 7 6 12 3 4 -2 20 8 36 22 16 15 35 26
42 25 6 -2 12 2 12 7 0 15 -43 4 -53 -14 -4 -8 -12 -13 -18 -10 -5 4 -9 1 -9
-6 0 -7 -3 -10 -6 -6 -3 3 -23 -3 -44 -14 -21 -11 -47 -21 -58 -22 -12 0 -18
-5 -15 -11 3 -5 -5 -7 -20 -4 -15 3 -28 1 -29 -4 -2 -4 -19 -11 -38 -14 -19
-3 -53 -8 -75 -11 -44 -7 -238 -8 -270 -1 -11 2 -26 7 -32 11 -8 5 -13 3 -13
-4 0 -8 -4 -8 -15 1 -8 7 -15 10 -15 7 0 -4 -18 0 -41 8 -23 8 -46 12 -52 8
-6 -4 -7 -1 -2 7 6 10 4 12 -7 7 -9 -3 -24 0 -34 7 -11 7 -36 19 -56 25 -21 7
-38 17 -38 22 0 5 -8 9 -19 9 -10 0 -24 7 -31 15 -7 8 -18 15 -26 15 -7 0 -17
7 -22 16 -5 9 -12 15 -16 14 -27 -6 -246 214 -246 248 0 6 -4 12 -9 12 -10 0
-91 162 -97 193 -2 11 -7 23 -11 26 -7 5 -10 16 -16 68 -1 6 1 11 4 10 4 -1
16 6 26 16 11 9 23 14 26 10 4 -3 7 -1 7 5 0 7 5 12 10 12 10 0 83 45 107 65
36 32 121 115 116 115 -2 0 7 15 21 33 15 17 30 37 34 42 13 17 36 70 34 78
-1 4 2 7 7 7 9 0 43 100 44 128 0 6 4 12 7 12 4 0 8 10 8 23 2 42 10 95 16
105 3 6 2 13 -4 17 -7 4 -6 13 1 27 8 16 8 19 -1 13 -9 -6 -9 -2 -1 14 9 15 9
21 1 21 -7 0 -10 14 -9 33 2 18 0 38 -5 45 -4 6 -4 17 -1 22 3 6 2 10 -3 10
-6 0 -9 6 -9 13 1 24 -16 77 -25 77 -5 0 -6 4 -3 10 3 5 -1 20 -9 32 -11 15
-12 26 -5 40 5 10 14 16 18 13 5 -3 12 2 15 11 3 8 10 12 16 9 5 -3 10 -3 10
2 0 8 62 39 69 34 2 -1 7 2 10 7 5 9 63 33 111 47 41 12 108 28 135 31 63 10
226 11 231 2 3 -5 12 -4 20 3 8 6 14 7 14 2 0 -4 18 -8 40 -7 23 0 43 -3 46
-8 3 -4 18 -8 35 -8 16 0 29 -4 29 -9 0 -6 9 -8 20 -6 11 2 20 0 20 -6 0 -5 3
-8 8 -7 4 1 16 -3 27 -9 11 -6 23 -11 28 -12 4 -1 8 -1 10 -2 1 0 11 -2 21 -4
10 -2 22 -7 25 -12 3 -4 32 -21 63 -37 31 -15 62 -34 69 -42 6 -8 18 -14 26
-14 8 0 11 -4 8 -10 -3 -5 0 -10 8 -10 23 0 197 -183 197 -207 0 -7 4 -13 10
-13 5 0 12 -11 16 -25 4 -14 9 -23 12 -20 6 6 50 -82 51 -102 1 -7 5 -13 9
-13 4 0 9 -12 10 -27 1 -14 9 -35 19 -45 13 -14 13 -18 2 -18 -12 0 -12 -2 0
-9 8 -5 10 -14 6 -21 -5 -9 -4 -11 4 -6 13 9 7 56 -10 66 -8 6 -7 9 2 13 11 4
11 6 1 6 -7 1 -10 6 -7 12 4 5 2 22 -3 37 -6 15 -14 36 -18 47 -4 11 -8 23 -9
28 -2 4 -4 10 -5 15 -1 4 -2 10 -1 15 0 4 -4 7 -11 7 -6 0 -9 3 -6 6 12 11
-111 234 -133 242 -5 2 -9 8 -9 13 0 14 -118 139 -186 198 -51 42 -168 117
-216 137 -25 10 -44 22 -41 27 2 4 1 7 -4 6 -13 -4 -67 13 -82 25 -8 6 -16 10
-18 9 -1 -2 -4 -3 -5 -2 -2 0 -10 2 -19 4 -9 1 -41 10 -70 18 -30 9 -79 18
-109 21 -30 2 -55 5 -55 6 0 8 -82 4 -87 -4 -5 -8 -8 -8 -8 0 0 13 -59 12 -79
-1 -10 -5 -12 -4 -7 3 8 14 8 14 -19 3z"/>
</g>
</svg>
